<?xml version="1.0"?>
<svg xmlns="http://www.w3.org/2000/svg" xmlns:xlink="http://www.w3.org/1999/xlink" version="1.1" viewBox="0 0 224 224" width="48px" height="48px"><g fill="none" fill-rule="nonzero" stroke="none" stroke-width="1" stroke-linecap="butt" stroke-linejoin="miter" stroke-miterlimit="10" stroke-dasharray="" stroke-dashoffset="0" font-family="none" font-weight="none" font-size="none" text-anchor="none" style="mix-blend-mode: normal"><path d="M0,224v-224h224v224z" fill="none"/><g><g id="surface1"><path d="M203.51042,93.71614h-7.51042v-0.38281h-84v37.33333h52.75521c-7.71094,21.72917 -28.38282,37.33333 -52.75521,37.33333c-30.93489,0 -56,-25.06511 -56,-56c0,-30.93489 25.06511,-56 56,-56c14.27344,0 27.27083,5.37761 37.15104,14.18229l26.39583,-26.39583c-16.66146,-15.53125 -38.95573,-25.11979 -63.54688,-25.11979c-51.55208,0 -93.33333,41.78125 -93.33333,93.33333c0,51.55208 41.78125,93.33333 93.33333,93.33333c51.55208,0 93.33333,-41.78125 93.33333,-93.33333c0,-6.25261 -0.63802,-12.35937 -1.82292,-18.28386z" fill="#ffc107"/><path d="M29.42188,68.55989l30.67968,22.49479c8.29427,-20.54427 28.38282,-35.05469 51.89844,-35.05469c14.27344,0 27.27083,5.37761 37.15104,14.18229l26.39583,-26.39583c-16.66146,-15.53125 -38.95573,-25.11979 -63.54688,-25.11979c-35.85677,0 -66.9375,20.23438 -82.57812,49.89323z" fill="#ff3d00"/><path d="M112,205.33333c24.09896,0 46.01042,-9.22396 62.58073,-24.22656l-28.89323,-24.44531c-9.36979,7.09114 -21.01823,11.33854 -33.6875,11.33854c-24.28125,0 -44.88021,-15.47656 -52.64583,-37.07812l-30.44271,23.44271c15.4401,30.22396 46.8125,50.96875 83.08854,50.96875z" fill="#4caf50"/><path d="M203.51042,93.71614h-7.51042v-0.38281h-84v37.33333h52.75521c-3.70052,10.44531 -10.42708,19.43229 -19.08594,25.99479c0.01823,0 0.01823,0 0.01823,0l28.89323,24.44531c-2.04167,1.84114 30.75261,-22.44011 30.75261,-69.10677c0,-6.25261 -0.63802,-12.35937 -1.82292,-18.28386z" fill="#1976d2"/></g></g></g></svg>
